<mxfile host="app.diagrams.net" agent="Mozilla/5.0 (X11; Linux x86_64; rv:143.0) Gecko/20100101 Firefox/143.0" version="28.2.5">
  <diagram id="2RAkf9iS2bYrb-5zrusB" name="Page-1">
    <mxGraphModel dx="1387" dy="574" grid="1" gridSize="10" guides="1" tooltips="1" connect="1" arrows="1" fold="1" page="1" pageScale="1" pageWidth="850" pageHeight="1100" math="0" shadow="0">
      <root>
        <mxCell id="0" />
        <mxCell id="1" parent="0" />
        <mxCell id="EpLoNu7SxfJ4iQwhgqlz-1" value="&lt;h1&gt;Assurance Case&lt;/h1&gt;&lt;p&gt;This is an example diagram that will provide quick access to all elements necessary to create an assurance case.&lt;/p&gt;" style="text;html=1;strokeColor=none;fillColor=none;spacing=5;spacingTop=-20;whiteSpace=wrap;overflow=hidden;rounded=0;" parent="1" vertex="1">
          <mxGeometry x="20" y="20" width="190" height="150" as="geometry" />
        </mxCell>
        <mxCell id="EpLoNu7SxfJ4iQwhgqlz-4" style="edgeStyle=orthogonalEdgeStyle;rounded=0;orthogonalLoop=1;jettySize=auto;html=1;exitX=1;exitY=0.5;exitDx=0;exitDy=0;entryX=0;entryY=0.5;entryDx=0;entryDy=0;endArrow=block;endFill=1;" parent="1" source="EpLoNu7SxfJ4iQwhgqlz-2" target="EpLoNu7SxfJ4iQwhgqlz-3" edge="1">
          <mxGeometry relative="1" as="geometry" />
        </mxCell>
        <mxCell id="EpLoNu7SxfJ4iQwhgqlz-6" value="" style="edgeStyle=orthogonalEdgeStyle;rounded=0;orthogonalLoop=1;jettySize=auto;html=1;endArrow=block;endFill=1;curved=1;" parent="1" source="EpLoNu7SxfJ4iQwhgqlz-2" target="EpLoNu7SxfJ4iQwhgqlz-5" edge="1">
          <mxGeometry relative="1" as="geometry" />
        </mxCell>
        <mxCell id="EpLoNu7SxfJ4iQwhgqlz-2" value="&lt;b&gt;Top-Claim C1:&amp;nbsp;&lt;/b&gt;Ladybird minimizes the exposure of sensitive user inputs." style="rounded=0;whiteSpace=wrap;html=1;" parent="1" vertex="1">
          <mxGeometry x="320" y="10" width="150" height="80" as="geometry" />
        </mxCell>
        <mxCell id="EpLoNu7SxfJ4iQwhgqlz-3" value="Context: CT1&lt;br&gt;Sensitive inputs refers to inputs made directly to a web page" style="rounded=1;whiteSpace=wrap;html=1;arcSize=30;" parent="1" vertex="1">
          <mxGeometry x="600" y="5" width="145" height="90" as="geometry" />
        </mxCell>
        <mxCell id="EpLoNu7SxfJ4iQwhgqlz-9" style="edgeStyle=orthogonalEdgeStyle;curved=1;rounded=0;orthogonalLoop=1;jettySize=auto;html=1;endArrow=block;endFill=1;" parent="1" source="EpLoNu7SxfJ4iQwhgqlz-5" target="EpLoNu7SxfJ4iQwhgqlz-8" edge="1">
          <mxGeometry relative="1" as="geometry" />
        </mxCell>
        <mxCell id="EpLoNu7SxfJ4iQwhgqlz-5" value="Rebuttal R1: Unless a malicious actor has physical access" style="shape=note;whiteSpace=wrap;html=1;backgroundOutline=1;darkOpacity=0.05;size=17;fillColor=#FFF2CC;" parent="1" vertex="1">
          <mxGeometry x="210" y="140" width="140" height="70" as="geometry" />
        </mxCell>
        <mxCell id="EpLoNu7SxfJ4iQwhgqlz-12" style="edgeStyle=orthogonalEdgeStyle;curved=1;rounded=0;orthogonalLoop=1;jettySize=auto;html=1;exitX=0.5;exitY=1;exitDx=0;exitDy=0;entryX=0.5;entryY=0;entryDx=0;entryDy=0;entryPerimeter=0;endArrow=block;endFill=1;" parent="1" source="EpLoNu7SxfJ4iQwhgqlz-8" target="EpLoNu7SxfJ4iQwhgqlz-10" edge="1">
          <mxGeometry relative="1" as="geometry" />
        </mxCell>
        <mxCell id="EpLoNu7SxfJ4iQwhgqlz-13" style="edgeStyle=orthogonalEdgeStyle;curved=1;rounded=0;orthogonalLoop=1;jettySize=auto;html=1;exitX=0.5;exitY=1;exitDx=0;exitDy=0;entryX=0.5;entryY=0;entryDx=0;entryDy=0;entryPerimeter=0;endArrow=block;endFill=1;" parent="1" source="EpLoNu7SxfJ4iQwhgqlz-8" target="EpLoNu7SxfJ4iQwhgqlz-11" edge="1">
          <mxGeometry relative="1" as="geometry" />
        </mxCell>
        <mxCell id="EpLoNu7SxfJ4iQwhgqlz-8" value="&lt;b&gt;Sub-Claim C2: &lt;/b&gt;Ladybird doesn&#39;t store sensitive inputs beyond the lifetime of the webpage." style="rounded=0;whiteSpace=wrap;html=1;" parent="1" vertex="1">
          <mxGeometry x="200" y="260" width="160" height="60" as="geometry" />
        </mxCell>
        <mxCell id="EpLoNu7SxfJ4iQwhgqlz-16" style="edgeStyle=orthogonalEdgeStyle;curved=1;rounded=0;orthogonalLoop=1;jettySize=auto;html=1;exitX=0.5;exitY=1;exitDx=0;exitDy=0;exitPerimeter=0;entryX=0.5;entryY=0;entryDx=0;entryDy=0;endArrow=block;endFill=1;" parent="1" source="EpLoNu7SxfJ4iQwhgqlz-10" target="EpLoNu7SxfJ4iQwhgqlz-14" edge="1">
          <mxGeometry relative="1" as="geometry" />
        </mxCell>
        <mxCell id="EpLoNu7SxfJ4iQwhgqlz-10" value="Rebuttal R5: Unless the attacker has view of the webpage while the input is present" style="shape=note;whiteSpace=wrap;html=1;backgroundOutline=1;darkOpacity=0.05;size=17;fillColor=#FFF2CC;" parent="1" vertex="1">
          <mxGeometry x="110" y="380" width="160" height="80" as="geometry" />
        </mxCell>
        <mxCell id="EpLoNu7SxfJ4iQwhgqlz-17" style="edgeStyle=orthogonalEdgeStyle;curved=1;rounded=0;orthogonalLoop=1;jettySize=auto;html=1;endArrow=block;endFill=1;" parent="1" source="EpLoNu7SxfJ4iQwhgqlz-11" target="EpLoNu7SxfJ4iQwhgqlz-15" edge="1">
          <mxGeometry relative="1" as="geometry" />
        </mxCell>
        <mxCell id="EpLoNu7SxfJ4iQwhgqlz-11" value="Rebuttal R6: Unless the user opts to save their input" style="shape=note;whiteSpace=wrap;html=1;backgroundOutline=1;darkOpacity=0.05;size=17;fillColor=#FFF2CC;" parent="1" vertex="1">
          <mxGeometry x="335" y="380" width="155" height="70" as="geometry" />
        </mxCell>
        <mxCell id="EpLoNu7SxfJ4iQwhgqlz-20" style="edgeStyle=orthogonalEdgeStyle;curved=1;rounded=0;orthogonalLoop=1;jettySize=auto;html=1;exitX=0.5;exitY=1;exitDx=0;exitDy=0;entryX=0.663;entryY=0.025;entryDx=0;entryDy=0;entryPerimeter=0;endArrow=block;endFill=1;" parent="1" source="EpLoNu7SxfJ4iQwhgqlz-14" target="EpLoNu7SxfJ4iQwhgqlz-18" edge="1">
          <mxGeometry relative="1" as="geometry" />
        </mxCell>
        <mxCell id="EpLoNu7SxfJ4iQwhgqlz-14" value="&lt;div&gt;&lt;b&gt;Sub-Claim C6:&lt;/b&gt;&lt;/div&gt;&lt;div&gt;Password-type inputs are masked when displayed.&lt;/div&gt;" style="rounded=0;whiteSpace=wrap;html=1;" parent="1" vertex="1">
          <mxGeometry x="110" y="510" width="140" height="60" as="geometry" />
        </mxCell>
        <mxCell id="EpLoNu7SxfJ4iQwhgqlz-27" style="edgeStyle=orthogonalEdgeStyle;curved=1;rounded=0;orthogonalLoop=1;jettySize=auto;html=1;entryX=0.5;entryY=0;entryDx=0;entryDy=0;endArrow=block;endFill=1;" parent="1" source="EpLoNu7SxfJ4iQwhgqlz-15" target="EpLoNu7SxfJ4iQwhgqlz-26" edge="1">
          <mxGeometry relative="1" as="geometry" />
        </mxCell>
        <mxCell id="EpLoNu7SxfJ4iQwhgqlz-15" value="&lt;div&gt;&lt;b&gt;Sub-Claim C7:&lt;/b&gt;&lt;/div&gt;&lt;div&gt;Ladybird encrypts saved inputs&lt;/div&gt;" style="rounded=0;whiteSpace=wrap;html=1;" parent="1" vertex="1">
          <mxGeometry x="350" y="510" width="140" height="60" as="geometry" />
        </mxCell>
        <mxCell id="EpLoNu7SxfJ4iQwhgqlz-23" style="edgeStyle=orthogonalEdgeStyle;curved=1;rounded=0;orthogonalLoop=1;jettySize=auto;html=1;entryX=0.5;entryY=0;entryDx=0;entryDy=0;endArrow=block;endFill=1;" parent="1" source="EpLoNu7SxfJ4iQwhgqlz-18" target="EpLoNu7SxfJ4iQwhgqlz-22" edge="1">
          <mxGeometry relative="1" as="geometry" />
        </mxCell>
        <UserObject label="&lt;b&gt;Evidence E1&lt;/b&gt;:&lt;br&gt;Masking code" link="https://github.com/LadybirdBrowser/ladybird/blob/1a640b1d9584f723a8bbc465537f03f6d7d49129/Libraries/LibWeb/Layout/TextNode.cpp#L310" id="EpLoNu7SxfJ4iQwhgqlz-18">
          <mxCell style="ellipse;whiteSpace=wrap;html=1;aspect=fixed;fillColor=#ffffff;rounded=0;" parent="1" vertex="1">
            <mxGeometry x="110" y="650" width="100" height="100" as="geometry" />
          </mxCell>
        </UserObject>
        <mxCell id="EpLoNu7SxfJ4iQwhgqlz-22" value="" style="ellipse;whiteSpace=wrap;html=1;aspect=fixed;fillColor=#CCCCCC;" parent="1" vertex="1">
          <mxGeometry x="145" y="800" width="30" height="30" as="geometry" />
        </mxCell>
        <mxCell id="EpLoNu7SxfJ4iQwhgqlz-29" style="edgeStyle=orthogonalEdgeStyle;curved=1;rounded=0;orthogonalLoop=1;jettySize=auto;html=1;entryX=0.5;entryY=0;entryDx=0;entryDy=0;endArrow=block;endFill=1;" parent="1" source="EpLoNu7SxfJ4iQwhgqlz-26" target="EpLoNu7SxfJ4iQwhgqlz-34" edge="1">
          <mxGeometry relative="1" as="geometry">
            <mxPoint x="405" y="820" as="targetPoint" />
          </mxGeometry>
        </mxCell>
        <mxCell id="EpLoNu7SxfJ4iQwhgqlz-26" value="&lt;div&gt;&lt;b&gt;Evidence E2:&lt;/b&gt;&lt;/div&gt;&lt;div&gt;TBD&lt;/div&gt;" style="ellipse;whiteSpace=wrap;html=1;aspect=fixed;fillColor=#ffffff;rounded=0;" parent="1" vertex="1">
          <mxGeometry x="370" y="640" width="100" height="100" as="geometry" />
        </mxCell>
        <mxCell id="EpLoNu7SxfJ4iQwhgqlz-34" value="" style="ellipse;whiteSpace=wrap;html=1;aspect=fixed;fillColor=#CCCCCC;" parent="1" vertex="1">
          <mxGeometry x="405" y="790" width="30" height="30" as="geometry" />
        </mxCell>
        <mxCell id="9r6ZIjnqEndJfNM_S5Ye-2" value="Rebuttal R2: Unless an untrusted script file is injected" style="shape=note;whiteSpace=wrap;html=1;backgroundOutline=1;darkOpacity=0.05;size=17;fillColor=#FFF2CC;" vertex="1" parent="1">
          <mxGeometry x="650" y="140" width="140" height="70" as="geometry" />
        </mxCell>
        <mxCell id="9r6ZIjnqEndJfNM_S5Ye-3" value="" style="edgeStyle=orthogonalEdgeStyle;rounded=0;orthogonalLoop=1;jettySize=auto;html=1;endArrow=block;endFill=1;curved=1;entryX=0.5;entryY=0;entryDx=0;entryDy=0;entryPerimeter=0;exitX=0.5;exitY=1;exitDx=0;exitDy=0;" edge="1" parent="1" source="EpLoNu7SxfJ4iQwhgqlz-2" target="9r6ZIjnqEndJfNM_S5Ye-2">
          <mxGeometry relative="1" as="geometry">
            <mxPoint x="495" y="100" as="sourcePoint" />
            <mxPoint x="380" y="150" as="targetPoint" />
          </mxGeometry>
        </mxCell>
        <mxCell id="9r6ZIjnqEndJfNM_S5Ye-4" value="&lt;b&gt;Sub-Claim C3:&amp;nbsp;&lt;/b&gt;Ladybird allows sites to define trusted domains for files." style="rounded=0;whiteSpace=wrap;html=1;" vertex="1" parent="1">
          <mxGeometry x="652.5" y="250" width="135" height="60" as="geometry" />
        </mxCell>
        <mxCell id="9r6ZIjnqEndJfNM_S5Ye-5" style="edgeStyle=orthogonalEdgeStyle;curved=1;rounded=0;orthogonalLoop=1;jettySize=auto;html=1;endArrow=block;endFill=1;exitX=0.5;exitY=1;exitDx=0;exitDy=0;exitPerimeter=0;entryX=0.5;entryY=0;entryDx=0;entryDy=0;" edge="1" parent="1" source="9r6ZIjnqEndJfNM_S5Ye-2" target="9r6ZIjnqEndJfNM_S5Ye-4">
          <mxGeometry relative="1" as="geometry">
            <mxPoint x="543" y="230" as="sourcePoint" />
            <mxPoint x="530" y="290" as="targetPoint" />
          </mxGeometry>
        </mxCell>
        <mxCell id="9r6ZIjnqEndJfNM_S5Ye-6" value="Rebuttal R3: Unless the malicious script is injected inline" style="shape=note;whiteSpace=wrap;html=1;backgroundOutline=1;darkOpacity=0.05;size=17;fillColor=#FFF2CC;" vertex="1" parent="1">
          <mxGeometry x="652.5" y="360" width="140" height="70" as="geometry" />
        </mxCell>
        <mxCell id="9r6ZIjnqEndJfNM_S5Ye-7" value="" style="endArrow=classic;html=1;rounded=0;exitX=0.5;exitY=1;exitDx=0;exitDy=0;entryX=0.476;entryY=-0.012;entryDx=0;entryDy=0;entryPerimeter=0;" edge="1" parent="1" source="9r6ZIjnqEndJfNM_S5Ye-4" target="9r6ZIjnqEndJfNM_S5Ye-6">
          <mxGeometry width="50" height="50" relative="1" as="geometry">
            <mxPoint x="830" y="340" as="sourcePoint" />
            <mxPoint x="730" y="340" as="targetPoint" />
          </mxGeometry>
        </mxCell>
        <mxCell id="9r6ZIjnqEndJfNM_S5Ye-8" value="&lt;b&gt;Sub-Claim C4:&amp;nbsp;&lt;/b&gt;Ladybird allows sites to disable inline scripts." style="rounded=0;whiteSpace=wrap;html=1;" vertex="1" parent="1">
          <mxGeometry x="657.5" y="470" width="135" height="60" as="geometry" />
        </mxCell>
        <mxCell id="9r6ZIjnqEndJfNM_S5Ye-9" value="" style="endArrow=classic;html=1;rounded=0;exitX=0.5;exitY=1;exitDx=0;exitDy=0;exitPerimeter=0;entryX=0.463;entryY=0;entryDx=0;entryDy=0;entryPerimeter=0;" edge="1" parent="1" source="9r6ZIjnqEndJfNM_S5Ye-6" target="9r6ZIjnqEndJfNM_S5Ye-8">
          <mxGeometry width="50" height="50" relative="1" as="geometry">
            <mxPoint x="820" y="440" as="sourcePoint" />
            <mxPoint x="870" y="390" as="targetPoint" />
          </mxGeometry>
        </mxCell>
        <mxCell id="9r6ZIjnqEndJfNM_S5Ye-12" value="Rebuttal R4: Unless the site also needs to use inline scripts" style="shape=note;whiteSpace=wrap;html=1;backgroundOutline=1;darkOpacity=0.05;size=17;fillColor=#FFF2CC;" vertex="1" parent="1">
          <mxGeometry x="657.5" y="580" width="140" height="70" as="geometry" />
        </mxCell>
        <mxCell id="9r6ZIjnqEndJfNM_S5Ye-13" value="" style="endArrow=classic;html=1;rounded=0;exitX=0.5;exitY=1;exitDx=0;exitDy=0;entryX=0.5;entryY=0;entryDx=0;entryDy=0;entryPerimeter=0;" edge="1" parent="1" source="9r6ZIjnqEndJfNM_S5Ye-8" target="9r6ZIjnqEndJfNM_S5Ye-12">
          <mxGeometry width="50" height="50" relative="1" as="geometry">
            <mxPoint x="853" y="440" as="sourcePoint" />
            <mxPoint x="850" y="490" as="targetPoint" />
          </mxGeometry>
        </mxCell>
        <mxCell id="9r6ZIjnqEndJfNM_S5Ye-14" value="&lt;b&gt;Sub-Claim C5:&amp;nbsp;&lt;/b&gt;Ladybird allows trusted inline scripts via nonce values." style="rounded=0;whiteSpace=wrap;html=1;" vertex="1" parent="1">
          <mxGeometry x="660" y="690" width="135" height="60" as="geometry" />
        </mxCell>
        <mxCell id="9r6ZIjnqEndJfNM_S5Ye-15" value="" style="endArrow=classic;html=1;rounded=0;exitX=0.5;exitY=1;exitDx=0;exitDy=0;entryX=0.5;entryY=0;entryDx=0;entryDy=0;exitPerimeter=0;" edge="1" parent="1" source="9r6ZIjnqEndJfNM_S5Ye-12" target="9r6ZIjnqEndJfNM_S5Ye-14">
          <mxGeometry width="50" height="50" relative="1" as="geometry">
            <mxPoint x="842" y="640" as="sourcePoint" />
            <mxPoint x="845" y="690" as="targetPoint" />
          </mxGeometry>
        </mxCell>
        <mxCell id="9r6ZIjnqEndJfNM_S5Ye-16" value="&lt;div&gt;Context: CT2&lt;/div&gt;&lt;div&gt;Nonce values are cryptographically secure values defined by the web server. Scripts with that value can be trusted as being served by that same server.&lt;/div&gt;" style="rounded=1;whiteSpace=wrap;html=1;arcSize=30;" vertex="1" parent="1">
          <mxGeometry x="890" y="675" width="255" height="90" as="geometry" />
        </mxCell>
        <mxCell id="9r6ZIjnqEndJfNM_S5Ye-17" value="" style="endArrow=classic;html=1;rounded=0;exitX=1;exitY=0.5;exitDx=0;exitDy=0;entryX=0;entryY=0.5;entryDx=0;entryDy=0;" edge="1" parent="1" source="9r6ZIjnqEndJfNM_S5Ye-14" target="9r6ZIjnqEndJfNM_S5Ye-16">
          <mxGeometry width="50" height="50" relative="1" as="geometry">
            <mxPoint x="850" y="650" as="sourcePoint" />
            <mxPoint x="850" y="710" as="targetPoint" />
          </mxGeometry>
        </mxCell>
        <mxCell id="9r6ZIjnqEndJfNM_S5Ye-18" value="&lt;b&gt;Evidence E3: &lt;/b&gt;Examples of sites using nonce attributes." style="ellipse;whiteSpace=wrap;html=1;aspect=fixed;fillColor=#ffffff;rounded=0;" vertex="1" parent="1">
          <mxGeometry x="677.5" y="830" width="100" height="100" as="geometry" />
        </mxCell>
        <mxCell id="9r6ZIjnqEndJfNM_S5Ye-19" style="edgeStyle=orthogonalEdgeStyle;curved=1;rounded=0;orthogonalLoop=1;jettySize=auto;html=1;endArrow=block;endFill=1;exitX=0.5;exitY=1;exitDx=0;exitDy=0;entryX=0.5;entryY=0;entryDx=0;entryDy=0;" edge="1" parent="1" source="9r6ZIjnqEndJfNM_S5Ye-14" target="9r6ZIjnqEndJfNM_S5Ye-18">
          <mxGeometry relative="1" as="geometry">
            <mxPoint x="729.46" y="850" as="sourcePoint" />
            <mxPoint x="757.46" y="930" as="targetPoint" />
          </mxGeometry>
        </mxCell>
        <mxCell id="9r6ZIjnqEndJfNM_S5Ye-20" value="&lt;div&gt;&lt;b&gt;Justification: J1&lt;/b&gt;&lt;/div&gt;&lt;div&gt;The default behavior for most form elements is to store previous inputs.&lt;/div&gt;" style="rounded=1;whiteSpace=wrap;html=1;arcSize=30;" vertex="1" parent="1">
          <mxGeometry y="245" width="145" height="90" as="geometry" />
        </mxCell>
        <mxCell id="9r6ZIjnqEndJfNM_S5Ye-24" style="edgeStyle=orthogonalEdgeStyle;rounded=0;orthogonalLoop=1;jettySize=auto;html=1;entryX=1;entryY=0.5;entryDx=0;entryDy=0;endArrow=block;endFill=1;exitX=0;exitY=0.5;exitDx=0;exitDy=0;" edge="1" parent="1" source="EpLoNu7SxfJ4iQwhgqlz-8" target="9r6ZIjnqEndJfNM_S5Ye-20">
          <mxGeometry relative="1" as="geometry">
            <mxPoint x="180" y="250" as="sourcePoint" />
            <mxPoint x="300" y="290" as="targetPoint" />
          </mxGeometry>
        </mxCell>
      </root>
    </mxGraphModel>
  </diagram>
</mxfile>
